<svg xmlns="http://www.w3.org/2000/svg" fill="none" viewBox="0 0 680 511">
  <defs/>
  <mask id="a" width="680" height="511" x="0" y="0" maskUnits="userSpaceOnUse">
    <rect width="680" height="510" y=".9" fill="#fff" rx="10"/>
  </mask>
  <g mask="url(#a)">
    <circle cx="350" cy="280.5" r="155.5" fill="#F55F5F"/>
    <path stroke="#fff" stroke-width="10" d="M385.6 110.2a155.5 155.5 0 11-47.6-10M318 75.8L342 99.9l-24.2 24.2"/>
    <path fill="#fff" d="M174.5 252h27.6v6.9h-27.6zM333.5 383.3V411h-7v-27.6zM457.9 252h27.6v6.9h-27.6zM299.4 220c4.3 0 8 .7 11.3 2.3a17.8 17.8 0 0110.3 17c0 4.1-1 8.1-3.2 12a67.1 67.1 0 01-9.1 12l-14 15.2h26.8v8h-40.8V283l17-18.7c4.9-5.2 8.6-9.6 11.2-13.3 2.6-3.7 3.8-7 3.8-9.8 0-4.3-1.3-7.4-4.1-9.5-2.8-2.1-6-3.2-10-3.2a18 18 0 00-9 2.4 38.8 38.8 0 00-7 5v-9.2c1.7-1.6 4-3 7-4.5 2.8-1.5 6.1-2.2 9.8-2.2zM369.1 221.4v43.4h10.2v7.4h-10.2v14.3h-8.7v-14.3h-29.8v-3.3c3.7-3.9 7.6-8.3 11.8-13.2 4.2-4.8 8.3-10.1 12.3-15.8 4.1-5.8 7.8-12 11.2-18.5h3.2zm-8.7 21.4c-2.6 4-5.2 8-7.9 11.7-2.7 3.7-5.4 7.1-8.3 10.3h16.2v-22z"/>
  </g>
</svg>
