<svg xmlns="http://www.w3.org/2000/svg" fill="none" viewBox="0 0 680 511">
  <defs/>
  <mask id="a" width="681" height="511" x="-1" y="0" maskUnits="userSpaceOnUse">
    <rect width="680" height="510" x="-.001" y=".864" fill="#fff" rx="10"/>
  </mask>
  <g mask="url(#a)">
    <path fill="lightseagreen" stroke="#fff" stroke-width="10" d="M74.635 61.323l565.067 151.41-215.338 803.65-565.066-151.41z"/>
    <path fill="#fff" d="M100.246 127.595l4.612 25.047 16.216-19.467 5.916 1.586-34.186 38.721-5.736-1.537 13.001-13.987-5.74-31.949 5.917 1.586zm46.587 11.836c3.059.819 5.581 2.271 7.567 4.357 1.987 2.085 3.321 4.513 4.002 7.283.721 2.782.699 5.601-.067 8.459-.766 2.857-2.156 5.31-4.172 7.358-1.964 2.019-4.328 3.435-7.09 4.247-2.763.813-5.674.81-8.733-.01-3.058-.82-5.581-2.272-7.567-4.357-1.987-2.085-3.346-4.499-4.078-7.24-.681-2.77-.639-5.585.127-8.442.765-2.858 2.136-5.316 4.111-7.375a16.391 16.391 0 017.167-4.291c2.763-.813 5.674-.809 8.733.011zm-1.294 4.829c-2.133-.571-4.145-.55-6.035.065a10.71 10.71 0 00-4.827 3.042c-1.287 1.424-2.195 3.122-2.724 5.094a12.417 12.417 0 00-.188 5.773c.443 1.887 1.33 3.57 2.659 5.048 1.341 1.437 3.077 2.442 5.21 3.013 2.174.583 4.18.581 6.019-.005 1.89-.615 3.479-1.634 4.767-3.058a11.95 11.95 0 002.784-5.077c.528-1.972.571-3.902.127-5.789a10.264 10.264 0 00-2.598-5.032c-1.29-1.467-3.021-2.492-5.194-3.074zm49.73 8.796l-4.788 17.87c-.712 2.656-1.89 4.799-3.534 6.429-1.645 1.63-3.573 2.709-5.786 3.238-2.212.529-4.525.47-6.94-.177s-4.448-1.753-6.1-3.317c-1.651-1.564-2.781-3.463-3.391-5.697-.609-2.234-.558-4.679.154-7.335l4.788-17.87 5.132 1.375-4.789 17.87c-.701 2.616-.475 4.833.677 6.652 1.203 1.789 2.811 2.953 4.823 3.492 2.012.539 3.966.329 5.862-.629 1.948-.988 3.272-2.79 3.973-5.406l4.788-17.87 5.131 1.375zm14.308 3.834l-1.618 6.037c1.707-1.7 3.547-2.932 5.52-3.697 1.974-.766 3.826-.916 5.557-.453 1.167.313 2.159.795 2.977 1.445l-1.536 5.735c-1.084-1.11-2.269-1.837-3.557-2.182-2.052-.55-3.917-.273-5.593.831-1.636 1.114-3.287 2.527-4.953 4.237l-4.885 18.232-4.951-1.326 8.089-30.186 4.95 1.327zm52.382 13.388c2.616.701 4.798 1.976 6.546 3.825 1.799 1.819 3.014 4.043 3.647 6.671.684 2.599.617 5.428-.203 8.487-.884 3.3-2.305 6.025-4.261 8.176-1.906 2.12-4.149 3.568-6.729 4.344-2.54.786-5.198.807-7.975.063-1.731-.464-3.378-1.402-4.941-2.812a16.565 16.565 0 01-3.634-4.792l-4.966 18.534-4.95-1.326 11.97-44.675 4.951 1.327-1.375 5.131c1.477-1.329 3.247-2.3 5.309-2.912 2.113-.642 4.317-.655 6.611-.041zm-2.079 4.62c-1.811-.485-3.585-.465-5.322.062-1.697.537-3.189 1.518-4.477 2.942-1.236 1.394-2.145 3.178-2.728 5.351l-1.492 5.812c.867 1.914 1.87 3.563 3.009 4.947 1.15 1.343 2.651 2.263 4.502 2.759 2.173.583 4.176.515 6.007-.202 1.831-.717 3.387-1.853 4.666-3.408 1.331-1.585 2.255-3.343 2.772-5.275.529-1.972.596-3.831.2-5.576-.384-1.785-1.177-3.335-2.377-4.649-1.201-1.314-2.788-2.235-4.76-2.763zm29.084 3.263l-1.618 6.038c1.707-1.7 3.547-2.933 5.52-3.698 1.974-.765 3.826-.916 5.557-.452 1.167.313 2.159.794 2.977 1.445l-1.536 5.735c-1.083-1.11-2.269-1.837-3.557-2.182-2.052-.55-3.917-.273-5.593.83-1.636 1.115-3.287 2.527-4.953 4.238l-4.885 18.232-4.95-1.327 8.088-30.185 4.95 1.326zm32.581 8.083c3.058.82 5.581 2.272 7.567 4.358 1.987 2.085 3.32 4.513 4.001 7.283.722 2.782.7 5.601-.066 8.459-.766 2.857-2.156 5.31-4.172 7.358-1.964 2.019-4.328 3.435-7.091 4.247-2.762.813-5.673.809-8.732-.01-3.059-.82-5.581-2.272-7.568-4.357-1.986-2.085-3.345-4.499-4.077-7.24-.681-2.771-.639-5.585.127-8.442.765-2.858 2.136-5.316 4.111-7.375a16.38 16.38 0 017.167-4.291c2.763-.813 5.674-.809 8.733.01zm-1.294 4.83c-2.134-.572-4.145-.55-6.035.065a10.71 10.71 0 00-4.827 3.042c-1.288 1.424-2.195 3.122-2.724 5.094a12.404 12.404 0 00-.188 5.773c.443 1.887 1.33 3.57 2.659 5.048 1.34 1.437 3.077 2.442 5.21 3.013 2.174.583 4.18.581 6.019-.005 1.89-.615 3.479-1.634 4.766-3.058a11.929 11.929 0 002.784-5.077c.529-1.972.571-3.902.128-5.789a10.258 10.258 0 00-2.599-5.032c-1.289-1.467-3.02-2.492-5.193-3.074zm37.637 4.908c1.73.464 3.368 1.356 4.912 2.676a13.916 13.916 0 013.743 4.626l1.084-4.045 4.95 1.327-7.926 29.581c-.96 3.582-2.483 6.366-4.568 8.352-2.085 1.987-4.491 3.24-7.219 3.76-2.727.52-5.52.397-8.378-.368-1.851-.496-3.381-1.144-4.591-1.942-1.18-.748-2.146-1.568-2.9-2.46a55.375 55.375 0 01-2.066-2.43l1.423-5.312c.486.604 1.119 1.378 1.902 2.321.812.994 1.827 1.956 3.044 2.886 1.258.941 2.752 1.643 4.483 2.107 1.972.529 3.88.652 5.724.369 1.844-.282 3.458-.993 4.842-2.132 1.383-1.139 2.34-2.694 2.868-4.666l1.698-6.339c-1.477 1.329-3.284 2.355-5.418 3.077-2.095.733-4.289.792-6.583.177-2.576-.69-4.758-1.965-6.546-3.824-1.777-1.9-2.997-4.189-3.659-6.869-.622-2.668-.523-5.532.296-8.591.895-3.34 2.29-6.051 4.185-8.131 1.935-2.07 4.182-3.452 6.74-4.147 2.57-.735 5.223-.736 7.96-.003zm-.405 5.133c-2.173-.582-4.17-.535-5.991.142-1.81.637-3.369 1.707-4.678 3.211-1.258 1.475-2.151 3.198-2.679 5.17-.518 1.932-.59 3.811-.217 5.636.374 1.826 1.156 3.416 2.346 4.77 1.23 1.365 2.811 2.306 4.743 2.824 1.852.496 3.631.455 5.339-.123 1.708-.577 3.21-1.598 4.509-3.062 1.298-1.464 2.212-3.268 2.744-5.412l1.492-5.811c-.827-1.904-1.852-3.473-3.074-4.706-1.171-1.263-2.683-2.143-4.534-2.639zm30.307 3.527l-1.617 6.037c1.706-1.7 3.546-2.932 5.52-3.697 1.973-.766 3.825-.916 5.556-.453 1.167.313 2.16.795 2.978 1.445l-1.537 5.735c-1.083-1.109-2.269-1.837-3.557-2.182-2.052-.55-3.916-.273-5.593.831-1.636 1.114-3.287 2.527-4.953 4.237l-4.885 18.232-4.95-1.326 8.088-30.186 4.95 1.327zm31.373 7.759c3.1.831 5.503 2.165 7.21 4.003 1.708 1.838 2.768 3.998 3.181 6.481.453 2.494.308 5.13-.436 7.907l-.793 2.958-23.182-6.212a11.669 11.669 0 00.505 5.118 10.783 10.783 0 002.717 4.351c1.273 1.204 2.876 2.065 4.808 2.583 2.173.582 4.351.583 6.534.003 2.193-.62 4.112-1.421 5.756-2.404l-1.5 5.357c-.747.533-1.786 1.031-3.118 1.493-1.281.434-2.711.698-4.289.792a13.162 13.162 0 01-4.678-.412c-3.058-.819-5.581-2.272-7.567-4.357-1.987-2.085-3.346-4.498-4.078-7.239-.681-2.771-.639-5.585.127-8.443.766-2.857 2.096-5.326 3.99-7.407 1.895-2.08 4.123-3.554 6.685-4.42 2.602-.856 5.311-.907 8.128-.152zm-1.294 4.83c-2.495-.669-4.774-.373-6.837.886-2.052 1.218-3.597 2.961-4.636 5.228l18.172 4.869c.327-2.026.195-3.787-.397-5.283-.551-1.485-1.389-2.702-2.516-3.65a9.238 9.238 0 00-3.786-2.05zm32.325 3.485c1.771.474 3.351 1.178 4.74 2.111 1.4.893 2.372 1.693 2.916 2.399l-1.424 5.313c-.672-.871-1.652-1.802-2.939-2.794a11.905 11.905 0 00-4.225-2.102c-1.892-.507-3.439-.447-4.642.179-1.163.638-1.874 1.439-2.133 2.405-.205.765-.153 1.62.154 2.565.359.916 1.157 1.798 2.396 2.648l4.586 3.17c1.789 1.212 2.994 2.592 3.615 4.139.621 1.546.699 3.185.235 4.916-.453 1.69-1.351 3.11-2.694 4.26-1.303 1.161-2.913 1.937-4.83 2.329-1.866.363-3.885.253-6.059-.329-1.167-.313-2.351-.803-3.553-1.47a23.256 23.256 0 01-3.106-1.932c-.887-.712-1.529-1.294-1.926-1.745l1.423-5.313c.456.553 1.117 1.227 1.983 2.019.917.764 1.91 1.483 2.981 2.158 1.08.635 2.124 1.087 3.13 1.356 1.892.507 3.494.484 4.807-.07 1.354-.544 2.197-1.439 2.532-2.687.259-.966.081-1.833-.533-2.601-.573-.758-1.494-1.587-2.762-2.487l-4.031-2.828c-2.097-1.51-3.35-3.032-3.759-4.565-.398-1.574-.365-3.226.099-4.956.69-2.576 2.227-4.45 4.612-5.623 2.385-1.173 5.187-1.328 8.407-.465zm25.838 6.923c1.771.475 3.351 1.179 4.74 2.112 1.4.892 2.372 1.692 2.916 2.398l-1.423 5.313c-.673-.87-1.653-1.802-2.94-2.793a11.92 11.92 0 00-4.224-2.103c-1.892-.507-3.439-.447-4.643.18-1.163.637-1.873 1.439-2.132 2.405-.205.764-.154 1.619.154 2.564.358.916 1.157 1.799 2.396 2.648l4.586 3.17c1.789 1.213 2.993 2.592 3.614 4.139.621 1.547.7 3.186.236 4.916a8.318 8.318 0 01-2.695 4.26c-1.303 1.161-2.913 1.937-4.83 2.33-1.865.363-3.885.253-6.058-.33-1.167-.312-2.352-.802-3.553-1.469a23.128 23.128 0 01-3.106-1.932c-.888-.713-1.53-1.295-1.927-1.746l1.424-5.313c.456.554 1.116 1.227 1.982 2.02a28.058 28.058 0 002.981 2.157c1.081.635 2.124 1.087 3.131 1.357 1.891.507 3.494.483 4.807-.071 1.353-.543 2.197-1.439 2.531-2.686.259-.966.082-1.833-.532-2.602-.574-.757-1.494-1.586-2.763-2.487l-4.031-2.827c-2.097-1.511-3.35-3.033-3.758-4.566-.398-1.573-.366-3.225.098-4.956.69-2.576 2.228-4.45 4.613-5.623 2.384-1.172 5.187-1.327 8.406-.465zm14.491 28.989c1.168.312 2.04.999 2.619 2.06.629 1.031.788 2.131.475 3.298-.302 1.127-.989 2-2.06 2.618-1.032.63-2.131.788-3.298.475-1.167-.312-2.06-1.005-2.679-2.076-.579-1.061-.717-2.155-.415-3.282.313-1.167.98-2.045 2-2.634 1.072-.619 2.191-.772 3.358-.459zM61.386 253.062l441.069 118.184-2.588 9.66L58.797 262.72zM45.857 311.018l406.927 109.036-2.588 9.659L43.269 320.677zM30.328 368.973L507.421 496.81l-2.588 9.659L27.74 378.632zM14.799 426.93l461.733 123.72-2.588 9.66L12.21 436.587zM-.73 484.884l354.816 95.073-2.588 9.66-354.816-95.074z"/>
  </g>
</svg>
