<?xml version="1.0" standalone="no"?>
<!DOCTYPE svg PUBLIC "-//W3C//DTD SVG 20010904//EN"
 "http://www.w3.org/TR/2001/REC-SVG-20010904/DTD/svg10.dtd">
<svg version="1.0" xmlns="http://www.w3.org/2000/svg"
 width="700.000000pt" height="700.000000pt" viewBox="0 0 700.000000 700.000000"
 preserveAspectRatio="xMidYMid meet">
<metadata>
Created by potrace 1.14, written by Peter Selinger 2001-2017
</metadata>
<g transform="translate(0.000000,700.000000) scale(0.100000,-0.100000)"
fill="#000000" stroke="none">
<path d="M3288 6985 c-2 -2 -42 -6 -88 -9 -47 -4 -96 -8 -110 -11 -14 -2 -59
-9 -100 -14 -74 -11 -111 -17 -160 -26 -14 -3 -34 -7 -45 -9 -87 -17 -297 -74
-407 -112 -512 -175 -954 -451 -1333 -829 -184 -184 -255 -267 -388 -454 -91
-128 -103 -147 -160 -246 -16 -27 -33 -55 -37 -60 -20 -24 -161 -319 -194
-405 -20 -52 -41 -104 -46 -115 -29 -61 -133 -433 -145 -520 -4 -22 -8 -47
-10 -55 -3 -8 -7 -35 -10 -60 -3 -25 -8 -57 -10 -72 -24 -139 -30 -238 -30
-493 1 -137 4 -284 8 -325 12 -105 45 -326 57 -369 5 -20 12 -52 15 -71 3 -19
8 -43 11 -52 3 -9 7 -25 9 -35 14 -67 85 -289 127 -398 50 -130 169 -381 229
-485 390 -674 1004 -1209 1719 -1497 103 -42 182 -71 210 -78 3 -1 12 -4 20
-8 92 -36 362 -100 530 -127 36 -5 74 -12 85 -14 11 -2 56 -7 100 -10 44 -4
103 -9 130 -12 70 -7 418 -6 490 1 112 11 150 15 225 25 112 16 118 17 205 35
44 9 91 18 105 21 85 17 430 123 495 153 11 5 79 35 150 67 72 32 152 71 178
86 26 15 50 28 53 28 10 0 149 83 249 149 130 86 208 144 283 209 l27 23 -63
-3 c-34 -2 -62 -1 -62 2 0 3 70 52 155 108 85 57 155 107 155 112 0 8 -250
661 -256 668 -4 6 -954 5 -959 0 -11 -11 -226 -579 -222 -586 3 -4 45 -34 94
-67 48 -33 90 -63 91 -67 2 -5 10 -8 17 -8 7 0 15 -4 17 -8 2 -4 49 -39 105
-77 57 -37 101 -70 98 -73 -3 -3 -942 -5 -1060 -2 -27 1 -28 2 -10 12 20 11
96 60 347 224 l137 89 25 65 c96 251 268 699 275 715 15 35 37 92 224 580 101
264 187 489 192 500 4 11 9 25 10 30 2 6 12 31 23 55 11 25 22 55 24 66 4 25
-6 36 -359 406 -46 48 -83 88 -83 90 0 5 959 3 964 -3 3 -3 53 -128 111 -279
59 -151 117 -302 130 -335 13 -33 57 -148 98 -255 234 -607 386 -999 397
-1025 4 -11 18 -47 31 -80 40 -108 34 -108 101 1 75 122 175 313 223 424 20
47 43 99 50 115 26 58 114 331 140 435 29 118 61 280 70 355 4 28 8 57 10 65
20 77 28 589 12 765 -7 78 -38 292 -51 350 -3 11 -14 61 -24 110 -99 451 -320
925 -610 1310 -131 173 -336 393 -509 545 -110 96 -313 248 -395 295 -10 6
-55 33 -100 61 -348 216 -845 395 -1248 450 -25 3 -48 8 -51 10 -3 2 -41 6
-85 9 -43 4 -86 9 -94 12 -17 6 -516 14 -522 8z m-485 -3291 c481 -71 840
-351 1027 -800 18 -44 37 -92 42 -109 22 -73 47 -174 53 -215 3 -25 8 -52 10
-60 18 -68 27 -354 15 -456 -13 -107 -22 -167 -26 -188 -3 -12 -7 -32 -10 -46
-3 -14 -8 -34 -11 -45 -4 -11 -8 -22 -8 -25 -63 -266 -245 -557 -448 -718
-150 -120 -370 -224 -538 -257 -158 -31 -392 -40 -534 -20 -139 18 -296 66
-415 125 -104 51 -115 58 -195 117 -292 216 -474 544 -540 971 -13 86 -15 439
-2 509 22 118 28 151 32 173 10 52 59 197 86 258 16 34 29 65 29 68 0 3 19 38
42 77 128 221 296 386 508 500 87 46 263 111 335 123 157 26 215 32 330 31 72
0 170 -6 218 -13z"/>
<path d="M2490 3570 c-110 -23 -241 -118 -317 -230 -104 -154 -193 -425 -218
-665 -3 -33 -9 -71 -12 -85 -9 -44 -12 -602 -3 -680 5 -41 12 -100 15 -130 4
-30 11 -77 16 -105 5 -27 12 -63 15 -80 2 -16 16 -70 29 -120 109 -399 318
-612 590 -599 310 13 530 340 604 897 32 234 34 625 5 877 -21 187 -89 441
-150 564 -98 196 -231 321 -373 352 -50 11 -156 13 -201 4z"/>
<path d="M5164 2924 c-4 -10 -97 -251 -206 -534 -110 -283 -200 -519 -201
-525 -1 -6 151 -10 416 -10 229 0 417 1 417 2 0 5 -80 217 -90 238 -5 11 -80
205 -166 430 -86 226 -158 412 -160 414 -2 2 -7 -5 -10 -15z"/>
</g>
</svg>
